<?xml version="1.0" encoding="utf-8" ?><svg xmlns="http://www.w3.org/2000/svg" xmlns:xlink="http://www.w3.org/1999/xlink" width="1024" height="1024" viewBox="0 0 1024 1024"><defs><linearGradient id="gradient_0" gradientUnits="userSpaceOnUse" x1="506.91144" y1="24.459579" x2="516.88104" y2="1022.3109"><stop offset="0" stop-color="#FF2C31"/><stop offset="1" stop-color="#C52AA8"/></linearGradient></defs><path fill="url(#gradient_0)" d="M489.6 0L534.24 0C538.807 0.977477 546.986 1.25335 551.861 1.54987C560.189 2.01993 568.501 2.74669 576.784 3.72913C608.717 7.88378 640.22 14.8571 670.923 24.5676L684.268 29.0706L686.298 29.9413C813.34 75.8088 917.177 169.911 975.288 291.84C996.588 337.128 1011.06 385.323 1018.23 434.853C1019.74 444.793 1020.93 454.777 1021.81 464.791C1022.12 468.582 1023.16 486.338 1024 489.12L1024 529.464L1023.92 529.913C1022.15 539.922 1022.53 552.419 1021.41 562.614C1019.26 582.351 1016.48 602.065 1012.35 621.474C985.848 747.084 912.49 857.881 807.201 931.329C746.545 974.269 677.142 1003.26 603.965 1016.22C590.066 1018.62 576.085 1020.52 562.05 1021.92C558.065 1022.29 540.414 1023.34 537.83 1024L485.745 1024C478.942 1022.67 466.81 1022.25 459.522 1021.53C444.611 1019.94 429.753 1017.88 414.973 1015.36C343.673 1003.03 272.324 970.925 213.546 929.174C108.258 854.6 35.5337 742.53 10.3166 615.996C6.55659 597.66 3.92408 579.11 2.4339 560.451C1.64715 551.063 1.68216 537.84 0 528.915L0 491.536C0.797756 487.976 1.20803 477.115 1.53429 472.953C2.38907 461.343 3.56631 449.759 5.06463 438.214C11.9044 387.106 26.6943 337.382 48.8982 290.844C96.7985 190.49 176.133 108.503 274.859 57.3306C291.32 48.8314 310.035 39.866 327.538 33.633C334.483 30.5504 344.48 27.4493 351.781 24.9855C384.03 14.1016 415.435 7.94478 449.121 3.76379C459.551 2.46925 480.823 1.94523 489.6 0Z"/><path fill="#FE2B30" d="M489.6 0L534.24 0C538.807 0.977477 546.986 1.25335 551.861 1.54987C560.189 2.01993 568.501 2.74669 576.784 3.72913C608.717 7.88378 640.22 14.8571 670.923 24.5676L670.671 26.5967C663.884 28.0534 659.739 22.0826 653.194 23.5972L652.866 25.3761C650.194 27.1581 646.752 23.4809 644.296 25.7119C634.275 34.8131 626.023 30.9425 613.937 31.7631C601.949 32.5771 589 33.4432 576.858 33.8142C563.113 33.9476 549.059 33.3735 535.251 33.7312C532.998 33.7896 530.202 33.6298 527.896 33.6814C523.856 32.6778 521.083 35.0158 518.946 35.1585C518.247 34.1884 517.902 33.6448 517.307 32.6065C514.011 31.8915 510.54 35.2224 505.705 32.4846L505.749 30.6844L505.031 30.1683L504.339 30.6279C504.153 31.8614 504.188 33.5425 503.695 34.5141C492.002 33.9849 481.624 34.7602 469.96 34.764C450.385 34.7703 430.819 34.5004 411.24 34.7795C409.002 34.8114 405.576 33.741 404.93 33.8592C401.742 34.4432 375.718 35.1613 374.345 34.7032L376.033 32.3434L375.909 31.6462C374.324 31.0484 373.096 31.2273 371.397 31.2656L371.332 30.7694C372.464 29.719 374.26 28.4619 374.468 27.2296C371.263 25.6432 362.41 29.3864 358.91 30.229C358.741 30.0149 358.573 29.8008 358.404 29.5867L358.585 26.6682C356.983 25.6266 349.645 29.258 347.453 29.7347C345.109 30.2441 344.977 28.8052 343.744 29.6362C339.658 32.6857 334.243 33.9975 329.216 34.6857L327.538 33.633C334.483 30.5504 344.48 27.4493 351.781 24.9855C384.03 14.1016 415.435 7.94478 449.121 3.76379C459.551 2.46925 480.823 1.94523 489.6 0Z"/><path fill="#FE2B30" d="M684.268 29.0706L686.298 29.9413C684.859 31.5649 684.535 31.6005 682.538 31.2802L682.407 30.3683L684.268 29.0706Z"/><defs><linearGradient id="gradient_1" gradientUnits="userSpaceOnUse" x1="815.20081" y1="541.98639" x2="138.68631" y2="439.01636"><stop offset="0" stop-color="#FADEDD"/><stop offset="1" stop-color="white"/></linearGradient></defs><path fill="url(#gradient_1)" d="M298.66 384.924C290.843 384.223 283.447 384.528 275.459 383.63C241.875 379.852 210.207 367.722 188 341.248C167.66 317 169.428 289.669 169.455 260.101C169.463 250.913 169.368 241.136 169.705 231.95C169.826 228.644 171.698 224.375 174.468 222.469C176.805 220.862 181.138 219.984 184.018 219.856C195.81 219.334 208.126 219.517 219.929 219.571L281.081 219.692L689.48 219.648L797.3 219.536L826.475 219.524C832.102 219.537 838.65 219.097 844.166 220.183C847.173 220.775 849.536 221.931 851.154 224.613C856.794 233.954 854.637 298.761 850.935 311.984C844.245 335.881 826.752 354.675 805.379 366.607C786.777 376.991 766.089 381.77 745.058 383.838C739.625 384.372 733.754 384.016 728.44 384.918C730.632 384.967 732.763 385.043 734.957 384.959L735.073 412.501C735.08 417.245 735.19 425.474 734.601 430.021C733.582 492.719 734.872 555.655 734.43 618.644C733.925 690.573 748.952 770.676 668.176 807.258C625.453 826.607 581.863 819.359 536.502 821.351C533.472 821.484 527.527 821.113 524.517 820.646C517.236 820.213 505.684 820.261 498.5 820.742C495.343 821.106 491.576 821.133 488.361 821.053C457.754 820.295 426.562 822.857 396.143 819.18C367.958 815.773 337.738 803.776 319.141 781.651C306.542 771.185 294.472 743.764 291.423 727.708C287.693 708.068 287.985 685.104 287.997 665.124L288.011 604.402L288.157 384.823C292.162 385.051 294.687 385.175 298.66 384.924Z"/><defs><linearGradient id="gradient_2" gradientUnits="userSpaceOnUse" x1="395.11865" y1="386.24323" x2="390.67447" y2="790.57898"><stop offset="0" stop-color="#ED040C"/><stop offset="1" stop-color="#BC0043"/></linearGradient></defs><path fill="url(#gradient_2)" d="M298.66 384.924C314.142 384.834 332.964 384.526 348.255 385.963C388.743 389.54 426.729 407.082 455.705 435.587C475.867 455.467 491.608 482.834 496.514 510.824C498.021 519.423 498.392 530.197 498.441 538.916L498.491 773.576L498.5 820.742C495.343 821.106 491.576 821.133 488.361 821.053C457.754 820.295 426.562 822.857 396.143 819.18C367.958 815.773 337.738 803.776 319.141 781.651C306.542 771.185 294.472 743.764 291.423 727.708C287.693 708.068 287.985 685.104 287.997 665.124L288.011 604.402L288.157 384.823C292.162 385.051 294.687 385.175 298.66 384.924Z"/><path fill="#930033" d="M319.141 781.651C325.608 782.401 332.425 790.846 338.859 790.979C342.675 791.059 347.828 790.301 351.947 790.308C358.378 790.32 366.09 791.415 372.402 790.431C375.991 789.871 381.636 787.101 385.564 786.129C396.332 783.465 407.506 781.342 418.533 780.194C425.661 779.451 433.051 781.752 440.233 781.989C447.48 782.229 454.778 779.94 461.871 779.687C468.671 779.445 475.851 781.059 482.829 780.459C489.156 779.916 492.796 773.652 498.491 773.576L498.5 820.742C495.343 821.106 491.576 821.133 488.361 821.053C457.754 820.295 426.562 822.857 396.143 819.18C367.958 815.773 337.738 803.776 319.141 781.651Z"/><defs><linearGradient id="gradient_3" gradientUnits="userSpaceOnUse" x1="744.9035" y1="428.08563" x2="510.60651" y2="810.37201"><stop offset="0" stop-color="#D90030"/><stop offset="1" stop-color="#FF5E6E"/></linearGradient></defs><path fill="url(#gradient_3)" d="M635.328 394.112C665.9 383.253 696.46 385.106 728.44 384.918C730.632 384.967 732.763 385.043 734.957 384.959L735.073 412.501C735.08 417.245 735.19 425.474 734.601 430.021C733.582 492.719 734.872 555.655 734.43 618.644C733.925 690.573 748.952 770.676 668.176 807.258C625.453 826.607 581.863 819.359 536.502 821.351C533.472 821.484 527.527 821.113 524.517 820.646L524.537 622.887L524.497 561.113C524.489 547.478 524.085 532.59 525.349 519.135C526.308 507.812 529.02 496.707 533.387 486.216C548.525 449.38 575.965 421.439 611.52 404.121C619.334 400.315 627.333 397.479 635.328 394.112Z"/><path fill="#930033" d="M635.328 394.112C665.9 383.253 696.46 385.106 728.44 384.918C730.632 384.967 732.763 385.043 734.957 384.959L735.073 412.501C735.08 417.245 735.19 425.474 734.601 430.021C733.477 426.84 732.782 423.292 731.049 420.378C721.837 404.89 666.56 407.621 649.48 403.389C643.671 401.949 638.486 399.406 635.328 394.112Z"/></svg>